HIERARCHY
ROOT Hips
{
	OFFSET 54.159698 -5.384886 95.845703
	CHANNELS 6 Xposition Yposition Zposition Xrotation Yrotation Zrotation
	JOINT spine
	{
		OFFSET 0.000000 -0.467660 8.132492
		CHANNELS 3 Xrotation Yrotation Zrotation
		JOINT spine1
		{
			OFFSET 0.000000 -0.000001 10.349800
			CHANNELS 3 Xrotation Yrotation Zrotation
			JOINT spine2
			{
				OFFSET 0.000000 -0.000001 9.916992
				CHANNELS 3 Xrotation Yrotation Zrotation
				JOINT Neck
				{
					OFFSET 0.000000 -1.213904 25.461006
					CHANNELS 3 Xrotation Yrotation Zrotation
					JOINT Head
					{
						OFFSET 0.000000 -0.000001 7.692444
						CHANNELS 3 Xrotation Yrotation Zrotation
						End Site
						{
							OFFSET 0.000000 6.140627 18.619995
						}
					}
				}
				JOINT RightShoulder
				{
					OFFSET -4.175751 0.581443 10.709602
					CHANNELS 3 Xrotation Yrotation Zrotation
					JOINT RightArm
					{
						OFFSET 0.000000 -0.000002 14.046600
						CHANNELS 3 Xrotation Yrotation Zrotation
						JOINT RightArmRoll
						{
							OFFSET 0.000000 -0.000001 7.090973
							CHANNELS 3 Xrotation Yrotation Zrotation
							JOINT RightForeArm
							{
								OFFSET 0.000000 -0.000003 20.653503
								CHANNELS 3 Xrotation Yrotation Zrotation
								JOINT RightForeArmRoll
								{
									OFFSET 0.000000 -0.000001 7.957184
									CHANNELS 3 Xrotation Yrotation Zrotation
									JOINT RightHand
									{
										OFFSET 0.000000 -0.000003 15.968292
										CHANNELS 3 Xrotation Yrotation Zrotation
										End Site
										{
											OFFSET 0.000000 0.000000 0.100006
										}
									}
								}
							}
						}
					}
				}
				JOINT LeftShoulder
				{
					OFFSET 4.175751 0.581443 10.709602
					CHANNELS 3 Xrotation Yrotation Zrotation
					JOINT LeftArm
					{
						OFFSET 0.000000 -0.000002 14.046600
						CHANNELS 3 Xrotation Yrotation Zrotation
						JOINT LeftArmRoll
						{
							OFFSET 0.000000 -0.000001 7.090973
							CHANNELS 3 Xrotation Yrotation Zrotation
							JOINT LeftForeArm
							{
								OFFSET 0.000000 -0.000003 20.653503
								CHANNELS 3 Xrotation Yrotation Zrotation
								JOINT LeftForeArmRoll
								{
									OFFSET 0.000000 -0.000001 7.957184
									CHANNELS 3 Xrotation Yrotation Zrotation
									JOINT LeftHand
									{
										OFFSET 0.000000 -0.000003 15.968292
										CHANNELS 3 Xrotation Yrotation Zrotation
										End Site
										{
											OFFSET 0.000000 0.000000 0.100006
										}
									}
								}
							}
						}
					}
				}
			}
		}
	}
	JOINT RightUpLeg
	{
		OFFSET -7.208340 1.108840 -1.321823
		CHANNELS 3 Xrotation Yrotation Zrotation
		JOINT RightUpLegRoll
		{
			OFFSET 0.000000 -0.000003 18.723801
			CHANNELS 3 Xrotation Yrotation Zrotation
			JOINT RightLeg
			{
				OFFSET 0.000000 0.000004 -23.186600
				CHANNELS 3 Xrotation Yrotation Zrotation
				JOINT RightLegRoll
				{
					OFFSET 0.000000 -0.000004 23.262398
					CHANNELS 3 Xrotation Yrotation Zrotation
					JOINT RightFoot
					{
						OFFSET 0.000000 -0.000003 19.362099
						CHANNELS 3 Xrotation Yrotation Zrotation
						JOINT RightToeBase
						{
							OFFSET 0.000000 -0.000003 16.185699
							CHANNELS 3 Xrotation Yrotation Zrotation
							End Site
							{
								OFFSET 0.006859 0.903521 7.838623
							}
						}
					}
				}
			}
		}
	}
	JOINT LeftUpLeg
	{
		OFFSET 7.208340 1.108840 -1.321823
		CHANNELS 3 Xrotation Yrotation Zrotation
		JOINT LeftUpLegRoll
		{
			OFFSET 0.000000 -0.000003 18.723900
			CHANNELS 3 Xrotation Yrotation Zrotation
			JOINT LeftLeg
			{
				OFFSET 0.000000 -0.000004 23.186501
				CHANNELS 3 Xrotation Yrotation Zrotation
				JOINT LeftLegRoll
				{
					OFFSET 0.000000 -0.000004 23.477493
					CHANNELS 3 Xrotation Yrotation Zrotation
					JOINT LeftFoot
					{
						OFFSET 0.000000 -0.000003 19.147003
						CHANNELS 3 Xrotation Yrotation Zrotation
						JOINT LeftToeBase
						{
							OFFSET 0.000000 -0.000003 16.185699
							CHANNELS 3 Xrotation Yrotation Zrotation
							End Site
							{
								OFFSET -0.030746 0.903521 7.838623
							}
						}
					}
				}
			}
		}
	}
}
MOTION
Frames: 12
Frame Time: 0.041667
52.062305 -14.490712 95.869392 -3.079352 -1.034306 31.043357 -0.265534 -0.341278 0.341529 3.473845 -0.680649 0.684658 5.118922 -0.672399 0.692766 9.924893 -11.403386 -15.463321 4.033394 -11.386464 -13.306043 -7.338160 -35.524473 -6.558473 -100.061807 -174.971237 -74.461076 0.000004 -0.000001 -0.000004 10.428322 5.086500 -0.257620 -0.000001 -0.000009 -3.003000 -5.000211 -7.998992 0.000131 -21.441323 51.175991 25.499828 -57.474129 143.975702 128.367531 -0.000002 0.000015 0.000012 111.378174 -15.084229 27.170187 -0.000001 0.000018 3.000003 -5.000251 7.998889 -0.000132 -7.626585 -172.443644 2.525081 -179.999991 0.000005 -0.777996 171.487130 -1.672380 -0.564294 -0.000001 -0.000002 -0.100743 66.300154 5.254961 6.262339 25.456887 -7.347903 -0.000007 -0.408065 176.013114 0.065577 -0.000020 -0.000004 -1.120039 -16.222198 0.526109 0.592388 -0.000005 0.000001 -0.585101 76.837511 -6.670755 -2.188981 25.550199 7.347455 -0.127908 
52.118103 -14.474215 95.868393 -3.110455 -1.009801 30.849827 -0.270335 -0.345321 0.333598 3.464229 -0.688798 0.668800 5.109311 -0.680739 0.677003 10.037381 -11.434748 -15.357890 3.984061 -11.278679 -13.226588 -7.362475 -35.562883 -6.595420 -99.899317 -174.841395 -74.582756 0.000005 -0.000001 -0.000003 11.050968 4.862181 -0.301784 -0.000001 -0.000008 -3.003071 -5.000214 -7.998992 0.000135 -21.384511 51.152465 25.429696 -57.519079 144.105640 128.143706 0.000001 0.000011 0.000012 111.202207 -15.000400 26.932127 0.000001 0.000018 2.999999 -5.000250 7.998887 -0.000136 -7.652185 -172.482753 2.501915 -179.999991 0.000004 -0.777998 171.484958 -1.669398 -0.562897 -0.000000 -0.000002 -0.099600 66.298222 5.257500 6.256065 25.456889 -7.347907 -0.000006 -0.377659 176.004085 0.041852 -0.000020 -0.000005 -1.120163 -16.270441 0.539299 0.595412 -0.000003 0.000002 -0.586645 76.886784 -6.669456 -2.189324 25.554741 7.347457 -0.134491 
52.130005 -14.464214 95.864304 -3.142483 -0.985402 30.655108 -0.274955 -0.348945 0.325612 3.454965 -0.696110 0.652819 5.100047 -0.688240 0.661115 10.155760 -11.475987 -15.251172 3.925156 -11.166704 -13.146895 -7.376830 -35.634118 -6.622642 -99.758335 -174.719203 -74.726504 0.000004 -0.000001 -0.000005 11.662100 4.636754 -0.344266 -0.000002 -0.000008 -3.003062 -5.000213 -7.998992 0.000133 -21.325536 51.121907 25.356989 -57.558769 144.246260 127.901016 0.000002 0.000010 0.000010 111.027840 -14.911782 26.691655 0.000002 0.000020 3.000003 -5.000247 7.998887 -0.000137 -7.676867 -172.522847 2.478043 -179.999991 0.000005 -0.779008 171.482472 -1.664443 -0.562231 -0.000000 -0.000002 -0.098517 66.295845 5.259843 6.250273 25.456889 -7.347906 -0.000007 -0.346452 175.994072 0.018579 -0.000020 -0.000004 -1.120260 -16.319675 0.551982 0.598256 -0.000004 0.000002 -0.588162 76.936767 -6.668142 -2.189719 25.558976 7.347462 -0.141014 
52.115005 -14.475212 95.858192 -3.175017 -0.959874 30.458351 -0.279612 -0.352315 0.317335 3.445620 -0.702911 0.636260 5.090705 -0.695239 0.644636 10.279796 -11.526310 -15.141995 3.857409 -11.049429 -13.066131 -7.381083 -35.733087 -6.639526 -99.634264 -174.602557 -74.884405 0.000005 -0.000001 -0.000004 12.272995 4.409723 -0.384051 0.000001 -0.000008 -3.003037 -5.000212 -7.998992 0.000132 -21.266513 51.083091 25.284368 -57.591855 144.395458 127.639611 0.000001 0.000013 0.000012 110.858430 -14.818606 26.448308 -0.000002 0.000018 2.999998 -5.000248 7.998888 -0.000137 -7.701674 -172.565904 2.452801 -179.999991 0.000005 -0.779006 171.479767 -1.659486 -0.561569 -0.000001 -0.000002 -0.097475 66.293331 5.262043 6.244754 25.456889 -7.347900 -0.000007 -0.315811 175.985056 -0.004730 -0.000020 -0.000004 -1.120280 -16.370913 0.564220 0.600981 -0.000005 0.000001 -0.589673 76.988041 -6.666855 -2.190248 25.563125 7.347452 -0.147468 
52.193005 -14.487417 95.858498 -3.208136 -0.933615 30.259968 -0.284234 -0.355442 0.308855 3.436343 -0.709231 0.619288 5.081432 -0.701763 0.627743 10.408626 -11.584739 -15.030830 3.781847 -10.927428 -12.984593 -7.377027 -35.856717 -6.648051 -99.525391 -174.490597 -75.055979 0.000006 -0.000002 -0.000002 12.884580 4.181210 -0.421256 -0.000000 -0.000008 -3.003031 -5.000215 -7.998991 0.000136 -21.206481 51.037424 25.210781 -57.619606 144.553058 127.360926 0.000005 0.000010 0.000011 110.692136 -14.721347 26.201939 -0.000003 0.000020 2.999998 -5.000250 7.998891 -0.000133 -7.726341 -172.608948 2.426261 -179.999991 0.000006 -0.780003 171.476885 -1.652558 -0.560619 -0.000001 -0.000002 -0.096471 66.290790 5.264123 6.239514 25.456889 -7.347905 -0.000006 -0.285270 175.974059 -0.027921 -0.000020 -0.000004 -1.120252 -16.423653 0.576044 0.603594 -0.000005 0.000002 -0.591176 77.040354 -6.665545 -2.190811 25.567061 7.347453 -0.153885 
52.191902 -14.479515 95.853401 -3.241935 -0.907036 30.060025 -0.288747 -0.358345 0.300243 3.427287 -0.715103 0.602056 5.072378 -0.707839 0.610581 10.541185 -11.650607 -14.918047 3.699552 -10.801176 -12.902473 -7.366448 -36.001903 -6.650188 -99.429960 -174.382420 -75.240797 0.000004 -0.000001 -0.000003 13.497489 3.951365 -0.455960 0.000001 -0.000008 -3.003021 -5.000215 -7.998993 0.000135 -21.145214 50.986392 25.135672 -57.644201 144.717652 127.068416 0.000001 0.000014 0.000012 110.527487 -14.620232 25.952374 0.000002 0.000019 3.000004 -5.000247 7.998887 -0.000139 -7.750553 -172.653973 2.399163 -179.999991 0.000006 -0.780003 171.473880 -1.645626 -0.559668 -0.000000 -0.000002 -0.095501 66.288120 5.266064 6.234450 25.456889 -7.347913 -0.000002 -0.254366 175.965043 -0.050859 -0.000020 -0.000005 -1.120182 -16.477387 0.587485 0.606099 -0.000004 0.000001 -0.592651 77.093281 -6.664239 -2.191642 25.571001 7.347452 -0.160320 
52.232304 -14.494412 95.846298 -3.276496 -0.880535 29.858889 -0.293064 -0.361038 0.291579 3.418610 -0.720553 0.584724 5.063703 -0.713498 0.593313 10.676520 -11.722751 -14.804000 3.611528 -10.671154 -12.819890 -7.351155 -36.165633 -6.647929 -99.346051 -174.277194 -75.438067 0.000004 -0.000002 -0.000007 14.112453 3.720314 -0.488247 -0.000001 -0.000009 -3.003004 -5.000209 -7.998990 0.000138 -21.081719 50.931379 25.057932 -57.667069 144.889226 126.763830 0.000002 0.000009 0.000010 110.362845 -14.515260 25.700431 -0.000000 0.000019 3.000001 -5.000254 7.998887 -0.000135 -7.774034 -172.698997 2.371713 -179.999991 0.000005 -0.781001 171.470697 -1.638683 -0.559730 -0.000001 -0.000002 -0.094551 66.285312 5.267865 6.229666 25.456887 -7.347914 -0.000002 -0.222620 175.955030 -0.073393 -0.000020 -0.000005 -1.120099 -16.531626 0.598571 0.608496 -0.000004 0.000002 -0.594097 77.146474 -6.662959 -2.192360 25.574844 7.347441 -0.166816 
52.237602 -14.496310 95.842300 -3.311925 -0.854519 29.656753 -0.297114 -0.363537 0.282950 3.410464 -0.725616 0.567453 5.055559 -0.718766 0.576105 10.813600 -11.800505 -14.689172 3.518831 -10.537740 -12.737182 -7.332949 -36.345008 -6.643294 -99.272025 -174.174018 -75.647439 0.000005 -0.000001 -0.000003 14.730302 3.488175 -0.518198 -0.000003 -0.000010 -3.002991 -5.000213 -7.998992 0.000135 -21.015409 50.873824 24.976689 -57.689834 145.066934 126.449191 -0.000001 0.000010 0.000011 110.195793 -14.407449 25.442991 -0.000000 0.000017 2.999999 -5.000246 7.998893 -0.000134 -7.796500 -172.743981 2.344379 -179.999991 0.000005 -0.781000 171.467459 -1.630752 -0.558637 -0.000000 -0.000002 -0.093621 66.282300 5.269628 6.224981 25.456889 -7.347909 -0.000003 -0.189570 175.947025 -0.095386 -0.000020 -0.000004 -1.120020 -16.585861 0.609332 0.610797 -0.000005 0.000001 -0.595499 77.199511 -6.661713 -2.193296 25.578688 7.347435 -0.173416 
52.259605 -14.502415 95.847992 -3.348290 -0.829392 29.453879 -0.300815 -0.365859 0.274424 3.403016 -0.730319 0.550400 5.048114 -0.723673 0.559108 10.951590 -11.882906 -14.573969 3.422498 -10.401417 -12.654582 -7.313620 -36.536751 -6.638253 -99.205936 -174.072016 -75.868088 0.000004 -0.000002 -0.000003 15.351776 3.255091 -0.545878 0.000001 -0.000005 -3.002978 -5.000211 -7.998994 0.000131 -20.945800 50.815149 24.891260 -57.714955 145.249628 126.128418 -0.000000 0.000012 0.000010 110.024888 -14.296867 25.180884 -0.000002 0.000016 2.999999 -5.000246 7.998891 -0.000135 -7.817642 -172.788924 2.317632 -179.999991 0.000005 -0.781998 171.464126 -1.622835 -0.558543 -0.000001 -0.000002 -0.092705 66.279063 5.271306 6.220489 25.456889 -7.347914 -0.000003 -0.154744 175.939020 -0.116680 -0.000020 -0.000004 -1.119968 -16.639599 0.619796 0.613005 -0.000004 0.000002 -0.596851 77.252226 -6.660420 -2.194143 25.582622 7.347432 -0.180190 
52.280899 -14.504113 95.841797 -3.385684 -0.805551 29.250442 -0.304094 -0.368020 0.266081 3.396419 -0.734695 0.533720 5.041518 -0.728249 0.542482 11.089443 -11.969108 -14.458752 3.323560 -10.262477 -12.572243 -7.295019 -36.738023 -6.634921 -99.146001 -173.970341 -76.099523 0.000004 -0.000001 -0.000004 15.977600 3.021148 -0.571356 -0.000000 -0.000008 -3.002970 -5.000209 -7.998994 0.000135 -20.871902 50.756645 24.800449 -57.742740 145.437486 125.801402 0.000003 0.000012 0.000011 109.848232 -14.183730 24.912975 0.000003 0.000017 2.999998 -5.000251 7.998891 -0.000136 -7.837214 -172.831885 2.291666 -179.999991 0.000005 -0.781997 171.460766 -1.614904 -0.557450 0.000000 -0.000002 -0.091794 66.275716 5.272967 6.215999 25.456887 -7.347915 -0.000003 -0.117679 175.934007 -0.137130 -0.000020 -0.000004 -1.119970 -16.692335 0.629992 0.615120 -0.000005 0.000001 -0.598133 77.304088 -6.659146 -2.195245 25.586659 7.347427 -0.187172 
52.281902 -14.500116 95.836594 -3.424207 -0.783400 29.046824 -0.306867 -0.370035 0.258011 3.390832 -0.738776 0.517577 5.035933 -0.732524 0.526386 11.226212 -12.058354 -14.344034 3.223072 -10.121495 -12.490612 -7.278984 -36.945648 -6.635344 -99.090493 -173.868011 -76.341140 0.000005 -0.000000 -0.000001 16.608607 2.786489 -0.594689 0.000002 -0.000007 -3.002950 -5.000210 -7.998993 0.000136 -20.793080 50.699825 24.703449 -57.776181 145.628813 125.472774 0.000003 0.000015 0.000010 109.664076 -14.068305 24.638079 0.000003 0.000019 3.000000 -5.000249 7.998890 -0.000135 -7.854901 -172.872812 2.266957 -179.999991 0.000005 -0.781996 171.457364 -1.607974 -0.557505 -0.000000 -0.000002 -0.090886 66.271946 5.274592 6.211624 25.456887 -7.347915 -0.000002 -0.077897 175.931002 -0.156603 -0.000020 -0.000005 -1.120029 -16.743570 0.639955 0.617151 -0.000004 0.000002 -0.599345 77.354945 -6.657838 -2.196306 25.590803 7.347420 -0.194408 
52.307602 -14.503416 95.834198 -3.463947 -0.763335 28.843192 -0.309060 -0.371920 0.250289 3.386404 -0.742594 0.502127 5.031497 -0.736525 0.510988 11.360741 -12.149707 -14.230247 3.122066 -9.978883 -12.409778 -7.267384 -37.156700 -6.641695 -99.037634 -173.764111 -76.592423 0.000005 -0.000002 -0.000003 17.245529 2.551206 -0.615921 -0.000003 -0.000006 -3.002940 -5.000209 -7.998993 0.000130 -20.708688 50.646051 24.599357 -57.816281 145.823391 125.143696 0.000003 0.000015 0.000010 109.470618 -13.950747 24.357040 -0.000003 0.000018 3.000003 -5.000249 7.998890 -0.000132 -7.870401 -172.912700 2.244094 -179.999991 0.000006 -0.782995 171.454004 -1.601030 -0.556556 -0.000000 -0.000002 -0.089972 66.267971 5.276176 6.207247 25.456890 -7.347915 -0.000002 -0.034936 175.930005 -0.174936 -0.000020 -0.000004 -1.120190 -16.792812 0.649708 0.619099 -0.000005 0.000002 -0.600475 77.404177 -6.656591 -2.197369 25.595248 7.347422 -0.201976 
